# xmcd
#
# Track frame offsets:
#	150
#	8898
#	19674
#	30187
#	40042
#	50753
#	60684
#	70784
#	82808
#	93319
#	103113
#	112015
#	120701
#	129913
#	138150
#	146751
#	157087
#	167398
#	176836
#	189193
#	198783
#	209928
#	217898
#	227692
#	236597
#	245666
#	255432
#
# Disc length: 3541 seconds
#
# Revision: 1
# Processed by: cddbd v1.5.2PL0 Copyright (c) Steve Scherf et al.
# Submitted via: audiograbber 1.83.01
#
DISCID=6e0dd31b
DTITLE=Hey Dj! - Play Some Jivers!
DYEAR=1900
DGENRE=
TTITLE0=Bob Butler - 3 Miles South Of Town
TTITLE1=The Chartbusters - She's The One
TTITLE2=Cliff Nash - No Time For Sister
TTITLE3=The Mark Four - 45 Rpm
TTITLE4=Blockbusters - Rock All Night
TTITLE5=Rex Allen - Knock Knock Rattle
TTITLE6=Ronnie Speeks - What Is You Technique
TTITLE7=The Treniers - Rockin' Is Our Buissnes
TTITLE8=Johnny Garner - Kiss Me Sweet
TTITLE9=Danny Wolfe - Pucker Paint
TTITLE10=Freddie Montell - Stopp And Rock
TTITLE11=Jack Reno - My Knees Turn To Jelly
TTITLE12=Lil' Millet - Rock Around The Clock
TTITLE13=Clyde Mc Phatter - Lover Please
TTITLE14=Dick Lamb and The Kilt Klassics - The Kilt Twist
TTITLE15=Joe Montomery - Planetary Run
TTITLE16=Nat Couty - Won't You Come Along With Me
TTITLE17=Don Coates - Spinnin' My Wheels
TTITLE18=Larry Williams - Slow Down
TTITLE19=Faron Young - I'm Gona Live Some Before I Die
TTITLE20=Johnny Kidd and The Pirates - So What
TTITLE21=Ron Fury - Long Long Time
TTITLE22=Dick Banks - Dirty Dog
TTITLE23=Ted Harris - Just Thought I'd Set You Straight
TTITLE24=Bullmoose Jackson - Watch My Signals
TTITLE25=Downbeats - Come On Over
TTITLE26=Jimmy Dell - I've Got A Dollar
EXTD=
EXTT0=
EXTT1=
EXTT2=
EXTT3=
EXTT4=
EXTT5=
EXTT6=
EXTT7=
EXTT8=
EXTT9=
EXTT10=
EXTT11=
EXTT12=
EXTT13=
EXTT14=
EXTT15=
EXTT16=
EXTT17=
EXTT18=
EXTT19=
EXTT20=
EXTT21=
EXTT22=
EXTT23=
EXTT24=
EXTT25=
EXTT26=
PLAYORDER=
